<svg width="100" height="65" viewBox="0 0 100 65" fill="none" xmlns="http://www.w3.org/2000/svg">
<g id="popup-center 1" clip-path="url(#clip0_14495_1677)">
<path id="Vector" d="M93.744 0.956055H5.41485C2.61847 0.956055 0.351562 3.22297 0.351562 6.01935V59.1839C0.351562 61.9803 2.61847 64.2472 5.41485 64.2472H93.744C96.5403 64.2472 98.8072 61.9803 98.8072 59.1839V6.01935C98.8072 3.22297 96.5403 0.956055 93.744 0.956055Z" fill="#EAF1FE"/>
<path id="Vector_2" d="M61.7699 22.4751H36.3588C34.9606 22.4751 33.8271 23.6086 33.8271 25.0067V40.1966C33.8271 41.5948 34.9606 42.7283 36.3588 42.7283H61.7699C63.1681 42.7283 64.3016 41.5948 64.3016 40.1966V25.0067C64.3016 23.6086 63.1681 22.4751 61.7699 22.4751Z" fill="#154FD9"/>
</g>
<defs>
<clipPath id="clip0_14495_1677">
<rect width="100" height="63.2911" fill="white" transform="translate(0 0.956055)"/>
</clipPath>
</defs>
</svg>
