<svg width="25" height="24" viewBox="0 0 25 24" fill="none" xmlns="http://www.w3.org/2000/svg">
    <path
        d="M21.4075 1.33398H4.10414C3.01129 1.33398 2.12335 2.22192 2.10059 3.33753V17.886C2.10059 18.9789 2.98852 19.8668 4.10414 19.8896H18.7209L22.7736 22.5989C23.0468 22.7811 23.3883 22.5762 23.3883 22.2574V3.31477C23.3883 2.22192 22.5004 1.33398 21.4075 1.33398ZM22.6142 21.4606L19.0625 19.1155C18.9942 19.07 18.9259 19.0472 18.8348 19.0472H4.10414C3.44388 19.0472 2.92022 18.5008 2.89745 17.8405V3.31477C2.89745 2.65451 3.44388 2.13085 4.10414 2.10808H21.4075C22.0678 2.10808 22.5914 2.65451 22.6142 3.31477V21.4606Z"
        fill="#3D3E50"/>
    <path
        d="M18.7664 10.6454C18.7664 7.32135 16.0798 4.63477 12.7558 4.63477C9.45447 4.63477 6.74512 7.32135 6.74512 10.6454C6.74512 13.9695 9.45447 16.6561 12.7558 16.6561C16.0571 16.6561 18.7437 13.9695 18.7664 10.6454ZM17.6508 12.4213H15.6017C15.7839 11.2374 15.7839 10.0307 15.6017 8.84678H17.6508C17.8557 9.3932 17.9696 10.0079 17.9696 10.6227C17.9696 11.2601 17.833 11.8976 17.6508 12.4213ZM12.7558 15.8592C12.05 15.8592 11.2986 14.8574 10.8888 13.2409H14.6227C14.2129 14.8574 13.4616 15.8592 12.7558 15.8592ZM10.7295 12.4213C10.5473 11.2374 10.5473 10.0307 10.7295 8.84678H14.7821C14.9642 10.0307 14.9642 11.2374 14.7821 12.4213H10.7295ZM7.54198 10.6454C7.54198 9.96239 7.70136 9.23383 7.86073 8.86955H9.90982C9.75045 10.0535 9.75045 11.2601 9.90982 12.4441H7.86073C7.72413 12.1253 7.54198 11.3512 7.54198 10.6454ZM12.7558 5.43163C13.4616 5.43163 14.2129 6.43341 14.6227 8.04991H10.8888C11.2986 6.45618 12.05 5.43163 12.7558 5.43163ZM17.2638 8.07268H15.4196C15.2602 7.23028 14.9187 6.45618 14.4633 5.75038C15.67 6.1602 16.649 6.97983 17.2638 8.07268ZM11.0254 5.72761C10.5701 6.43341 10.2286 7.23028 10.0692 8.04991H8.22501C8.86251 6.97983 9.84152 6.1602 11.0254 5.72761ZM8.24778 13.2182H10.092C10.2513 14.0606 10.5928 14.8347 11.0482 15.5405C9.84152 15.1306 8.86251 14.311 8.24778 13.2182ZM14.4861 15.5632C14.9415 14.8574 15.283 14.0606 15.4424 13.2409H17.2865C16.649 14.311 15.67 15.1306 14.4861 15.5632Z"
        fill="#3D3E50"/>
</svg>
