<svg width="25" height="24" viewBox="0 0 25 24" fill="none" xmlns="http://www.w3.org/2000/svg">
    <path
        d="M24.2968 11.6527H23.2125V11.3441C23.0576 8.79743 21.9732 6.40514 20.1144 4.63023C18.3331 2.85531 15.8547 1.69775 13.2988 1.54341H12.989V0.385852C12.989 0.154341 12.8341 0 12.6018 0C12.3694 0 12.2145 0.154341 12.2145 0.385852V1.46624H11.9047C9.34886 1.62058 6.9479 2.70096 5.16655 4.55305C3.38519 6.40515 2.22344 8.79743 2.06854 11.2669V11.5756H0.906782C0.674432 11.5756 0.519531 11.7299 0.519531 11.9614C0.519531 12.1929 0.674432 12.4244 0.906782 12.4244H1.99109V12.7331C2.14599 15.2797 3.23029 17.672 5.0891 19.4469C6.87045 21.2219 9.34886 22.3794 11.8273 22.5338H12.1371V23.6141C12.1371 23.8457 12.292 24 12.5243 24C12.7567 24 12.9116 23.8457 12.9116 23.6141V22.5338H13.2214C15.7772 22.3794 18.1782 21.299 20.037 19.4469C21.8183 17.672 22.9801 15.2026 23.135 12.7331V12.4244H24.2193C24.4517 12.4244 24.6066 12.2701 24.6066 12.0386C24.6066 11.8071 24.5291 11.6527 24.2968 11.6527ZM21.2762 12.4244H22.3605V12.7331C21.9732 17.4405 18.1782 21.299 13.3763 21.6849H13.0665V20.6045C13.0665 20.373 12.9116 20.2187 12.6792 20.2187C12.4469 20.2187 12.292 20.373 12.292 20.6045V21.6849H11.9822C7.1028 21.3762 3.23029 17.5177 2.92049 12.8103V12.5016H4.00479C4.23714 12.5016 4.39204 12.3473 4.39204 12.1158C4.39204 11.8842 4.15969 11.6527 3.92734 11.6527H2.84304V11.3441C3.23029 6.55949 7.1028 2.70096 11.8273 2.31511H12.1371V3.3955C12.1371 3.62701 12.292 3.78135 12.5243 3.78135C12.7567 3.78135 12.9116 3.62701 12.9116 3.3955V2.31511H13.2214C17.9458 2.70096 21.8183 6.48232 22.2056 11.2669V11.5756H21.1213C20.8889 11.5756 20.734 11.7299 20.734 11.9614C20.734 12.1929 21.0438 12.4244 21.2762 12.4244Z"
        fill="#A6742A"/>
    <path
        d="M12.6012 5.86523C10.8199 5.86523 9.11599 6.86845 8.34149 8.48903C7.56698 10.1096 7.72188 12.0389 8.80619 13.4279L12.2914 18.0582C12.4463 18.2897 12.8336 18.2897 12.9885 18.0582L16.4738 13.4279C17.5581 11.9617 17.713 10.1096 16.9385 8.48903C16.0865 6.86845 14.3826 5.86523 12.6012 5.86523ZM15.7767 12.9649L12.6012 17.1321L9.42579 12.9649C8.49639 11.7302 8.41894 10.1868 9.03854 8.87488C9.73559 7.48581 11.0522 6.71411 12.5238 6.71411C13.9954 6.71411 15.3895 7.48581 16.0091 8.87488C16.6287 10.2639 16.6287 11.7302 15.7767 12.9649Z"
        fill="#A6742A"/>
    <path
        d="M12.602 8.7207C11.5951 8.7207 10.7432 9.56958 10.7432 10.5728C10.7432 11.576 11.5951 12.4249 12.602 12.4249C13.6088 12.4249 14.4608 11.576 14.4608 10.5728C14.4608 9.56958 13.6088 8.7207 12.602 8.7207ZM12.602 11.6532C12.0598 11.6532 11.5951 11.1902 11.5951 10.65C11.5951 10.1098 12.0598 9.64675 12.602 9.64675C13.1441 9.64675 13.6088 10.1098 13.6088 10.65C13.6088 11.1902 13.1441 11.6532 12.602 11.6532Z"
        fill="#A6742A"/>
    <defs>
        <clipPath>
            <rect width="24" height="24" fill="white" transform="translate(0.75)"/>
        </clipPath>
    </defs>
</svg>
