<svg width="25" height="24" viewBox="0 0 25 24" fill="none" xmlns="http://www.w3.org/2000/svg">
    <path
        d="M12.3336 2C8.53358 2 4.63364 2.87198 2.5 4.29377V12.08C2.5 18.0569 8.40014 20.9644 11.5334 22.7737C11.7724 22.9215 12.05 23 12.3336 23C12.6171 23 12.8947 22.9215 13.1337 22.7737C16.3999 20.8675 22.5 18.2826 22.5 12.08V4.29377C20.2999 2.87198 16.4664 2 12.3336 2Z"
        stroke="#1160C6"/>
    <path
        d="M18.5 10.2308H13.8929L12.5 6L11.1071 10.2308H6.5L10.25 12.7692L8.80357 17L12.5 14.3558L16.1964 17L14.75 12.7692L18.5 10.2308Z"
        stroke="#1160C6"
        stroke-linejoin="round"/>
</svg>
