<svg width="22" height="22" viewBox="0 0 22 22" fill="none" xmlns="http://www.w3.org/2000/svg">
    <path
        d="M2.73294 20.2446H14.702C15.3338 20.916 16.1415 21.3965 17.033 21.6313C17.2149 21.6801 17.4065 21.6801 17.5884 21.6313C21.5998 20.5465 21.9276 15.5826 21.9329 14.0871C21.9331 13.7029 21.6282 13.3881 21.2442 13.376C20.985 13.3653 20.7425 13.3404 20.5107 13.3077V2.46683C20.5095 1.28911 19.5551 0.334672 18.3774 0.333496H2.73294C1.55522 0.334672 0.600785 1.28911 0.599609 2.46683V18.1113C0.600785 19.289 1.55522 20.2434 2.73294 20.2446ZM17.4032 20.9436C17.3426 20.9596 17.2789 20.9596 17.2183 20.9436C14.3959 20.181 13.4014 16.997 13.4067 14.086C14.8092 14.0543 16.1692 13.5983 17.3072 12.7779C18.4555 13.5883 19.817 14.0428 21.2218 14.0846C21.2172 15.4524 20.9281 19.9911 17.4032 20.9436ZM12.3329 8.87039V8.92194C12.3584 9.77984 12.9976 10.4949 13.8473 10.6162C13.9706 10.9037 14.1678 11.1535 14.419 11.3401C14.8302 11.6333 15.338 11.7582 15.8384 11.6892C15.8719 11.9322 15.8887 12.1771 15.8885 12.4224C15.8885 12.5515 15.8775 12.6784 15.8686 12.8057C15.0826 13.1543 14.2366 13.3475 13.3772 13.3746C12.9932 13.3867 12.6883 13.7015 12.6885 14.0857C12.693 15.1086 12.8233 16.1271 13.0764 17.1182C12.2265 17.5766 11.2676 17.7943 10.3031 17.7479C7.56137 17.6043 5.37101 15.413 5.22859 12.6713C5.15995 11.2152 5.69054 9.7945 6.69686 8.73988C7.70319 7.68526 9.09746 7.0887 10.5552 7.08905C10.9194 7.08743 11.2826 7.12558 11.6385 7.20283C11.6281 7.28301 11.6225 7.36375 11.6218 7.44461C11.6211 8.00534 11.8846 8.53364 12.3329 8.87039ZM17.7438 12.2158C17.489 12.0174 17.1321 12.0174 16.8773 12.2158C16.8083 12.2695 16.7102 12.3378 16.5993 12.4107C16.599 12.1361 16.5801 11.862 16.5427 11.59C16.5154 11.3968 16.4108 11.2229 16.2529 11.1083C16.0973 10.9933 15.9008 10.9484 15.7107 10.9845C15.4045 11.032 15.0919 10.9544 14.8435 10.7691C14.6942 10.6587 14.5766 10.5107 14.5029 10.3403C14.4085 10.1148 14.2021 9.95595 13.96 9.92247C13.4515 9.85038 13.0665 9.42615 13.0441 8.91305V8.87039C13.0477 8.64719 12.9444 8.43572 12.766 8.3015C12.4914 8.10282 12.3301 7.7835 12.3329 7.44461C12.3336 7.39705 12.3369 7.34957 12.3429 7.30239C12.3972 6.93412 12.1567 6.58682 11.7929 6.50807C11.3861 6.42097 10.9712 6.37735 10.5552 6.37794C8.90266 6.37754 7.3221 7.05397 6.1815 8.24971C5.0409 9.44546 4.43981 11.0562 4.51819 12.7068C4.68155 15.8144 7.16491 18.297 10.2725 18.4594C10.3667 18.4636 10.4602 18.4658 10.5537 18.4658C11.5039 18.4674 12.4409 18.244 13.288 17.8137C13.4934 18.4214 13.7775 18.9996 14.1331 19.5335H2.73294C1.94747 19.5335 1.31072 18.8967 1.31072 18.1113V5.31127H19.7996V13.1662C19.0572 12.9916 18.3578 12.6683 17.7438 12.2158ZM2.73294 1.04461H18.3774C19.1629 1.04461 19.7996 1.68136 19.7996 2.46683V4.60016H1.31072V2.46683C1.31072 1.68136 1.94747 1.04461 2.73294 1.04461Z"
        fill="#087357"/>
    <path
        d="M3.08815 3.88773C3.67725 3.88773 4.15482 3.41017 4.15482 2.82106C4.15482 2.23196 3.67725 1.75439 3.08815 1.75439C2.49905 1.75439 2.02148 2.23196 2.02148 2.82106C2.02148 3.41017 2.49905 3.88773 3.08815 3.88773ZM3.08815 2.46551C3.28452 2.46551 3.44371 2.62469 3.44371 2.82106C3.44371 3.01743 3.28452 3.17662 3.08815 3.17662C2.89178 3.17662 2.7326 3.01743 2.7326 2.82106C2.7326 2.62469 2.89178 2.46551 3.08815 2.46551Z"
        fill="#087357"/>
    <path
        d="M18.848 15.3545L16.2525 17.6248L15.7764 17.1487C15.6369 17.0139 15.4151 17.0159 15.278 17.153C15.1408 17.2902 15.1389 17.5119 15.2736 17.6514L15.9847 18.3625C16.1171 18.495 16.3295 18.5022 16.4704 18.3789L19.3149 15.89C19.4627 15.7607 19.4778 15.536 19.3485 15.3881C19.2192 15.2403 18.9945 15.2252 18.8466 15.3545H18.848Z"
        fill="#087357"/>
    <path
        d="M9.84401 9.93363C10.4331 9.93363 10.9107 9.45606 10.9107 8.86696C10.9107 8.27786 10.4331 7.80029 9.84401 7.80029C9.25491 7.80029 8.77734 8.27786 8.77734 8.86696C8.77734 9.45606 9.25491 9.93363 9.84401 9.93363ZM9.84401 8.5114C10.0404 8.5114 10.1996 8.67059 10.1996 8.86696C10.1996 9.06333 10.0404 9.22252 9.84401 9.22252C9.64764 9.22252 9.48845 9.06333 9.48845 8.86696C9.48845 8.67059 9.64764 8.5114 9.84401 8.5114Z"
        fill="#087357"/>
    <path
        d="M10.5547 12.0667C10.5547 12.6558 11.0323 13.1333 11.6214 13.1333C12.2105 13.1333 12.688 12.6558 12.688 12.0667C12.688 11.4776 12.2105 11 11.6214 11C11.0323 11 10.5547 11.4776 10.5547 12.0667ZM11.9769 12.0667C11.9769 12.263 11.8177 12.4222 11.6214 12.4222C11.425 12.4222 11.2658 12.263 11.2658 12.0667C11.2658 11.8703 11.425 11.7111 11.6214 11.7111C11.8177 11.7111 11.9769 11.8703 11.9769 12.0667Z"
        fill="#087357"/>
    <path
        d="M9.48898 11.7098C9.48898 10.9243 8.85223 10.2876 8.06675 10.2876C7.28128 10.2876 6.64453 10.9243 6.64453 11.7098C6.64453 12.4953 7.28128 13.132 8.06675 13.132C8.85223 13.132 9.48898 12.4953 9.48898 11.7098ZM8.06675 12.4209C7.67402 12.4209 7.35564 12.1026 7.35564 11.7098C7.35564 11.3171 7.67402 10.9987 8.06675 10.9987C8.45949 10.9987 8.77786 11.3171 8.77786 11.7098C8.77786 12.1026 8.45949 12.4209 8.06675 12.4209Z"
        fill="#087357"/>
    <path
        d="M9.8441 13.8462C9.05863 13.8462 8.42188 14.4829 8.42188 15.2684C8.42188 16.0539 9.05863 16.6906 9.8441 16.6906C10.6296 16.6906 11.2663 16.0539 11.2663 15.2684C11.2663 14.4829 10.6296 13.8462 9.8441 13.8462ZM9.8441 15.9795C9.45136 15.9795 9.13299 15.6611 9.13299 15.2684C9.13299 14.8757 9.45136 14.5573 9.8441 14.5573C10.2368 14.5573 10.5552 14.8757 10.5552 15.2684C10.5552 15.6611 10.2368 15.9795 9.8441 15.9795Z"
        fill="#087357"/>
</svg>
