<svg viewBox="0 0 512 512" xmlns="http://www.w3.org/2000/svg"><path d="m281.1 108.5c-6 5.5-16.1 4.4-21.6-3.4-6.4-6-4.4-16.07 2.5-21.59l23.2-18.59c13.7-10.95 30.7-16.92 48.3-16.92 15.2 0 30.1 4.51 42.8 12.97l8.6 5.72c7.3 4.9 9.3 14.83 4.4 22.19-4.9 7.35-14.8 9.33-22.2 4.43l-8.6-5.72c-7.4-4.95-16.1-7.59-25-7.59-10.3 0-20.3 3.49-28.3 9.91zm71.3 115.5c0 17.7-14.4 32-32 32-17.7 0-32-14.3-32-32s14.3-32 32-32c17.6 0 32 14.3 32 32zm63.6 169.9v-91.5c-20.3 20.7-48.7 33.6-80 33.6-61.9 0-112-50.1-112-112s50.1-112 112-112 112 50.1 112 112v169.9c0 33.1 17.1 63.9 45.1 81.4l11.4 7.1c6.6 4.7 9.8 13.7 5.1 22.1-4.7 6.6-14.6 9.8-22.1 5.1l-11.3-7.1c-37.5-23.4-60.2-64.4-60.2-108.6zm-80-249.9c-44.2 0-80 35.8-80 80s35.8 80 80 80 80-35.8 80-80-35.8-80-80-80zm-159.6 48c0 17.7-14.4 32-32 32-17.7 0-32-14.3-32-32s14.3-32 32-32c17.6 0 32 14.3 32 32z"/><path d="m427.2 446.3c-45.3 40.9-105.4 65.7-171.2 65.7-141.4 0-256-114.6-256-256s114.6-256 256-256 256 114.6 256 256c0 62.8-22.6 120.3-60.1 164.9-2.6-8.7-3.9-17.7-3.9-27v-169.9c0-61.9-50.1-112-112-112s-112 50.1-112 112 50.1 112 112 112c31.3 0 59.7-12.9 80-33.6v91.5c0 18.4 3.9 36.2 11.2 52.4zm-282.8-286.3c-17.7 0-32 14.3-32 32s14.3 32 32 32c17.6 0 32-14.3 32-32s-14.4-32-32-32zm15.6 208c14.3 0 37.9 2.9 60.6 11.7 22.8 8.8 42.7 22.8 53.1 43.5 3.9 7.9 13.6 11.1 21.5 7.1 7.9-3.9 11.1-13.6 7.1-21.5-15.2-30.5-44.2-48.5-70.1-58.9-26.9-10.4-54.5-13.9-73.1-13.9-7.9 0-16 7.2-16 16s8.1 16 16 16zm145.2-278.09c8-6.42 18-9.91 28.3-9.91 8.9 0 17.6 2.64 25 7.59l8.6 5.72c7.4 4.9 17.3 2.92 22.2-4.43 4.9-7.36 2.9-17.29-4.4-22.19l-8.6-5.72c-12.7-8.46-27.6-12.97-42.8-12.97-17.6 0-34.6 5.97-48.3 16.92l-23.2 18.59c-6.9 5.52-8.9 15.59-2.5 21.59 5.5 7.8 15.6 8.9 21.6 3.4z" opacity=".4"/></svg>