<svg viewBox="0 0 448 512" xmlns="http://www.w3.org/2000/svg"><path d="m138.07 320h171.84l72.93 117.29a6.4 6.4 0 0 1 .09 7.12 6.11 6.11 0 0 1 -5.88 3.52h-306.16a6.08 6.08 0 0 1 -5.89-3.46 6.45 6.45 0 0 1 .11-7.18z" opacity=".4"/><path d="m112 64h224a16 16 0 0 0 16-16v-32a16 16 0 0 0 -16-16h-224a16 16 0 0 0 -16 16v32a16 16 0 0 0 16 16zm325.19 339.5-117.19-188.5v-119h-64v137.27l126.85 204a6.4 6.4 0 0 1 .09 7.12 6.11 6.11 0 0 1 -5.88 3.52h-306.17a6.08 6.08 0 0 1 -5.89-3.44 6.45 6.45 0 0 1 .11-7.18l126.89-204.02v-137.27h-64v119l-117.21 188.5c-29.3 47.1 4.5 108.5 60.1 108.5h306.2c55.7 0 89.4-61.5 60.1-108.5z"/></svg>