<svg viewBox="0 0 576 512" xmlns="http://www.w3.org/2000/svg"><path d="m446.1 375.6c-2.8 5.2-8.2 8.4-14.1 8.4h-288c-6.023 0-11.53-3.379-14.26-8.75-2.73-5.367-2.215-11.81 1.332-16.68l70-96c3.028-4.17 7.828-6.57 12.028-6.57 5.11 0 9.914 2.441 12.93 6.574l22.35 30.66 62.74-94.11c2.98-4.424 7.98-7.124 14.18-7.124 5.348 0 10.34 2.672 13.31 7.125l106.7 160c3.29 4.875 3.59 11.175.79 16.475z"/><path d="m528 64h-480c-26.51 0-48 21.49-48 48v288c0 26.5 21.49 48 48 48h480c26.51 0 48-21.49 48-48v-288c0-26.51-21.5-48-48-48zm-352.9 96c17.68 0 32 14.33 32 32s-14.32 32-32 32c-17.67 0-32-14.33-32-32s15.2-32 32-32zm271 215.6c-2.8 5.2-8.2 8.4-14.1 8.4h-288c-6.023 0-11.53-3.379-14.26-8.75-2.73-5.367-2.215-11.81 1.332-16.68l70-96c3.028-4.17 7.828-6.57 12.028-6.57 5.11 0 9.914 2.441 12.93 6.574l22.35 30.66 62.74-94.11c2.98-4.424 7.98-7.124 14.18-7.124 5.348 0 10.34 2.672 13.31 7.125l106.7 160c3.29 4.875 3.59 11.175.79 16.475z" opacity=".4"/></svg>