<svg viewBox="0 0 512 512" xmlns="http://www.w3.org/2000/svg"><path d="m257.8 187.3 114 52.7c5.7 2.6 9.3 8.3 9.3 14.6 0 6.2-3.6 11.9-9.3 14.5l-114 52.7-52.7 114c-2.6 5.7-8.3 9.3-14.5 9.3-6.3 0-12-3.6-14.6-9.3l-52.7-114-114.008-52.7c-5.665-2.6-9.292-8.3-9.292-14.5 0-6.3 3.627-12 9.292-14.6l114.008-52.7 52.7-114.01c2.6-5.66 8.3-9.29 14.6-9.29 6.2 0 11.9 3.63 14.5 9.29z"/><path d="m327.5 85.19 56.5-21.19 21.2-56.509c1.7-4.506 6-7.491 10.8-7.491s9.1 2.985 10.8 7.491l21.2 56.509 56.5 21.19c4.5 1.69 7.5 6 7.5 10.81 0 4.8-3 9.1-7.5 10.8l-56.5 21.2-21.2 56.5c-1.7 4.5-6 7.5-10.8 7.5s-9.1-3-10.8-7.5l-21.2-56.5-56.5-21.2c-5.4-1.7-7.5-6-7.5-10.8 0-4.81 2.1-9.12 7.5-10.81zm0 320.01 56.5-21.2 21.2-56.5c1.7-5.4 6-7.5 10.8-7.5s9.1 2.1 10.8 7.5l21.2 56.5 56.5 21.2c4.5 1.7 7.5 6 7.5 10.8s-3 9.1-7.5 10.8l-56.5 21.2-21.2 56.5c-1.7 4.5-6 7.5-10.8 7.5s-9.1-3-10.8-7.5l-21.2-56.5-56.5-21.2c-5.4-1.7-7.5-6-7.5-10.8s2.1-9.1 7.5-10.8z" opacity=".4"/></svg>