<svg viewBox="0 0 640 512" xmlns="http://www.w3.org/2000/svg"><path d="m466.74 326.35a222.2 222.2 0 0 0 -36.69-25.75l-138.76-107.24c81.8-7.62 166.15 17.36 231.38 75.05a15.81 15.81 0 0 1 .56 23.15l-34.44 34a16.31 16.31 0 0 1 -22.05.79zm-259.14-197.67c126.08-38.46 268.25-10.63 371 83.53a16.25 16.25 0 0 0 22.4-.38l34.24-34a15.9 15.9 0 0 0 -.36-23c-138.48-128.06-337.11-155.95-501.82-83.77zm48.4 287.32a63.88 63.88 0 0 0 127 10l-88.7-68.56a64 64 0 0 0 -38.3 58.56zm-250.91-261.13a15.88 15.88 0 0 0 -.35 23l34.26 33.93a16.25 16.25 0 0 0 22.4.38c7-6.4 14.31-12.22 21.65-18l-64.98-50.18c-4.3 3.67-8.79 7-12.98 10.87zm113.22 113.52a15.9 15.9 0 0 0 -.57 23.17l34.28 34a16.17 16.17 0 0 0 21.94.8c13.35-11.6 28-20.66 43.15-28.55l-68.36-52.81a299.77 299.77 0 0 0 -30.44 23.39z" opacity=".4"/><path d="m636.64 480.55-19.64 25.27a16 16 0 0 1 -22.46 2.81l-588.36-454.73a16 16 0 0 1 -2.81-22.45l19.63-25.27a16 16 0 0 1 22.47-2.81l588.36 454.73a16 16 0 0 1 2.81 22.45z"/></svg>