<svg viewBox="0 0 576 512" xmlns="http://www.w3.org/2000/svg"><path d="m416 32h-32c-17.7 0-32 14.3-32 32s14.3 32 32 32h32c17.7 0 32 14.3 32 32v37.5c0 25.5 10.1 49.9 28.1 67.9l22.6 22.6-22.6 22.6c-18 18-28.1 42.4-28.1 67.9v37.5c0 17.7-14.3 32-32 32h-32c-17.7 0-32 14.3-32 32s14.3 32 32 32h32c53 0 96-43 96-96v-37.5c0-8.5 3.4-16.6 9.4-22.6l45.3-45.3c12.5-12.5 12.5-32.8 0-45.3l-45.3-45.3c-6-6-9.4-14.1-9.4-22.6v-37.4c0-53-43-96-96-96zm-256 0c-53 0-96 43-96 96v37.5c0 8.5-3.4 16.6-9.4 22.6l-45.2 45.3c-12.5 12.5-12.5 32.8 0 45.3l45.3 45.3c6 6 9.4 14.1 9.4 22.6v37.4c0 53 43 96 96 96h32c17.7 0 32-14.3 32-32s-14.3-32-32-32h-32.1c-17.7 0-32-14.3-32-32v-37.5c0-25.5-10.1-49.9-28.1-67.9l-22.6-22.6 22.6-22.6c18-18 28.1-42.4 28.1-67.9v-37.5c0-17.7 14.3-32 32-32h32c17.7 0 32-14.3 32-32s-14.3-32-32-32z"/></svg>