<svg viewBox="0 0 576 512" xmlns="http://www.w3.org/2000/svg"><path d="m160 32c-35.3 0-64 28.7-64 64v224c0 35.3 28.7 64 64 64h352c35.3 0 64-28.7 64-64v-224c0-35.3-28.7-64-64-64zm8 48h16c8.8 0 16 7.2 16 16v16c0 8.8-7.2 16-16 16h-16c-8.8 0-16-7.2-16-16v-16c0-8.8 7.2-16 16-16zm304 16c0-8.8 7.2-16 16-16h16c8.8 0 16 7.2 16 16v16c0 8.8-7.2 16-16 16h-16c-8.8 0-16-7.2-16-16zm-304 88h16c8.8 0 16 7.2 16 16v16c0 8.8-7.2 16-16 16h-16c-8.8 0-16-7.2-16-16v-16c0-8.8 7.2-16 16-16zm304 16c0-8.8 7.2-16 16-16h16c8.8 0 16 7.2 16 16v16c0 8.8-7.2 16-16 16h-16c-8.8 0-16-7.2-16-16zm-304 88h16c8.8 0 16 7.2 16 16v16c0 8.8-7.2 16-16 16h-16c-8.8 0-16-7.2-16-16v-16c0-8.8 7.2-16 16-16zm304 16c0-8.8 7.2-16 16-16h16c8.8 0 16 7.2 16 16v16c0 8.8-7.2 16-16 16h-16c-8.8 0-16-7.2-16-16zm-184-224h96c17.7 0 32 14.3 32 32v48c0 17.7-14.3 32-32 32h-96c-17.7 0-32-14.3-32-32v-48c0-17.7 14.3-32 32-32zm-32 176c0-17.7 14.3-32 32-32h96c17.7 0 32 14.3 32 32v48c0 17.7-14.3 32-32 32h-96c-17.7 0-32-14.3-32-32zm-208-136c0-13.3-10.7-24-24-24s-24 10.7-24 24v224c0 75.1 60.9 136 136 136h320c13.3 0 24-10.7 24-24s-10.7-24-24-24h-320c-48.6 0-88-39.4-88-88z"/></svg>