<svg viewBox="0 0 576 512" xmlns="http://www.w3.org/2000/svg"><path d="m512 0c35.3 0 64 28.65 64 64v224c0 35.3-28.7 64-64 64h-448c-35.35 0-64-28.7-64-64v-224c0-35.35 28.65-64 64-64zm0 64h-448v224h448zm-512 384c0-17.7 14.33-32 32-32h32c17.67 0 32 14.3 32 32v32c0 17.7-14.33 32-32 32h-32c-17.67 0-32-14.3-32-32zm224-32c17.7 0 32 14.3 32 32v32c0 17.7-14.3 32-32 32h-32c-17.7 0-32-14.3-32-32v-32c0-17.7 14.3-32 32-32zm96 32c0-17.7 14.3-32 32-32h32c17.7 0 32 14.3 32 32v32c0 17.7-14.3 32-32 32h-32c-17.7 0-32-14.3-32-32zm224-32c17.7 0 32 14.3 32 32v32c0 17.7-14.3 32-32 32h-32c-17.7 0-32-14.3-32-32v-32c0-17.7 14.3-32 32-32z"/></svg>