<svg viewBox="0 0 640 512" xmlns="http://www.w3.org/2000/svg"><path d="m624 224h-144c-12.12 0-23.21 6.85-28.63 17.69l-26.54 53.09-73.95-271.2c-3.89-14.23-17.06-24.09-31.75-23.56-14.77.41-27.33 10.84-30.43 25.28l-69.14 322.68-28.79-100.78c-3.93-13.73-16.48-23.2-30.77-23.2h-144c-8.84 0-16 7.16-16 16v32c0 8.84 7.16 16 16 16h119.86l57.38 200.79c3.94 13.77 16.52 23.2 30.75 23.2.36 0 .73 0 1.09-.02 14.67-.5 27.14-10.92 30.22-25.28l68.44-319.4 61.39 225.12a32.012 32.012 0 0 0 27.72 23.42c13.16 1.2 25.84-5.69 31.78-17.53l55.15-110.3h124.22c8.84 0 16-7.16 16-16v-32c0-8.84-7.16-16-16-16z"/></svg>