<svg viewBox="0 0 512 512" xmlns="http://www.w3.org/2000/svg"><path d="m320 0h128c35.3 0 64 28.7 64 64v128c0 8.8-7.2 16-16 16h-52c-6.6 0-12 5.4-12 12v4c0 17.7-14.3 32-32 32s-32-14.3-32-32v-4c0-6.6-5.4-12-12-12h-36c-8.8 0-16-7.2-16-16v-32c0-8.8 7.2-16 16-16h16c17.7 0 32-14.3 32-32s-14.3-32-32-32h-16c-8.8 0-16-7.2-16-16v-48c0-8.8 7.2-16 16-16zm-320 256v-128c0-35.3 28.7-64 64-64h128c8.8 0 16 7.2 16 16v36c0 6.6 5.4 12 12 12h4c17.7 0 32 14.3 32 32s-14.3 32-32 32h-4c-6.6 0-12 5.4-12 12v52c0 8.8-7.2 16-16 16h-32c-8.8 0-16-7.2-16-16v-16c0-17.7-14.3-32-32-32s-32 14.3-32 32v16c0 8.8-7.2 16-16 16h-48c-8.8 0-16-7.2-16-16zm0 192v-128c0-8.8 7.2-16 16-16h176c8.8 0 16 7.2 16 16v32c0 8.8-7.2 16-16 16h-16c-17.7 0-32 14.3-32 32s14.3 32 32 32h16c8.8 0 16 7.2 16 16v48c0 8.8-7.2 16-16 16h-128c-35.3 0-64-28.7-64-64zm240-128c0-8.8 7.2-16 16-16h32c8.8 0 16 7.2 16 16v16c0 17.7 14.3 32 32 32s32-14.3 32-32v-16c0-8.8 7.2-16 16-16h48c8.8 0 16 7.2 16 16v128c0 35.3-28.7 64-64 64h-128c-8.8 0-16-7.2-16-16z"/></svg>