<svg viewBox="0 0 576 512" xmlns="http://www.w3.org/2000/svg"><path d="m288 32c-159.06 0-288 128.94-288 288 0 52.8 14.25 102.26 39.06 144.8 5.61 9.62 16.3 15.2 27.44 15.2h443c11.14 0 21.83-5.58 27.44-15.2 24.81-42.54 39.06-92 39.06-144.8 0-159.06-128.94-288-288-288zm144 128c17.67 0 32 14.33 32 32s-14.33 32-32 32-32-14.33-32-32 14.33-32 32-32zm-144-64c17.67 0 32 14.33 32 32s-14.33 32-32 32-32-14.33-32-32 14.33-32 32-32zm-192 288c-17.67 0-32-14.33-32-32s14.33-32 32-32 32 14.33 32 32-14.33 32-32 32zm48-160c-17.67 0-32-14.33-32-32s14.33-32 32-32 32 14.33 32 32-14.33 32-32 32zm339.95 151.67-133.93 22.32c-1.51 6.37-3.69 12.48-6.9 18.01h-110.24c-5.5-9.45-8.88-20.28-8.88-32 0-35.35 28.65-64 64-64 23.06 0 43.1 12.31 54.37 30.61l133.68-22.28c13.09-2.17 25.45 6.64 27.62 19.72 2.19 13.07-6.65 25.45-19.72 27.62z"/></svg>