<svg viewBox="0 0 480 512" xmlns="http://www.w3.org/2000/svg"><path d="m215.03 71.05-88.97 88.95h-102.06c-13.26 0-24 10.74-24 24v144c0 13.25 10.74 24 24 24h102.06l88.97 88.95c15.03 15.03 40.97 4.47 40.97-16.97v-335.96c0-21.46-25.96-31.98-40.97-16.97zm264.97 184.95c0-63.53-32.06-121.94-85.77-156.24-11.19-7.14-26.03-3.82-33.12 7.46s-3.78 26.21 7.41 33.36c39.75 25.39 63.48 68.53 63.48 115.42s-23.73 90.03-63.48 115.42c-11.19 7.14-14.5 22.07-7.41 33.36 6.51 10.36 21.12 15.14 33.12 7.46 53.71-34.3 85.77-92.71 85.77-156.24zm-141.77-76.87c-11.58-6.33-26.19-2.16-32.61 9.45-6.39 11.61-2.16 26.2 9.45 32.61 12.91 7.09 20.93 20.44 20.93 34.81 0 14.38-8.02 27.72-20.92 34.81-11.61 6.41-15.84 21-9.45 32.61 6.43 11.66 21.05 15.8 32.61 9.45 28.23-15.55 45.77-45 45.77-76.88s-17.54-61.32-45.78-76.86z"/></svg>