<svg viewBox="0 0 640 512" xmlns="http://www.w3.org/2000/svg"><path d="m352 32c0-17.7-14.3-32-32-32s-32 14.3-32 32v448c0 17.7 14.3 32 32 32s32-14.3 32-32zm192 64c0-17.7-14.3-32-32-32s-32 14.3-32 32v320c0 17.7 14.3 32 32 32s32-14.3 32-32zm-288 32c0-17.7-14.3-32-32-32s-32 14.3-32 32v256c0 17.7 14.3 32 32 32s32-14.3 32-32zm192 32c0-17.7-14.3-32-32-32s-32 14.3-32 32v192c0 17.7 14.3 32 32 32s32-14.3 32-32zm-288 64c0-17.7-14.3-32-32-32s-32 14.3-32 32v64c0 17.7 14.3 32 32 32s32-14.3 32-32zm-160 32a32 32 0 1 0 64 0 32 32 0 1 0 -64 0zm576 0a32 32 0 1 0 64 0 32 32 0 1 0 -64 0z"/></svg>